<svg id="Layer_1" data-name="Layer 1" xmlns="http://www.w3.org/2000/svg" viewBox="0 0 59.1 32.59"><title>HK-Sticker</title><path d="M29,32.88a15.93,15.93,0,0,0-8.29,2.32v-9H13V48.16c0,.24,0,.48,0,.72a15.83,15.83,0,0,0,2.51,8.58l6.89-3.53a8.25,8.25,0,0,1-1.69-4.52v-1A8.31,8.31,0,1,1,35.59,53.9l6.67,3.89A16,16,0,0,0,29,32.88Z" transform="translate(-12.97 -26.22)"/><path d="M63.16,51.13a8.32,8.32,0,0,1-8.31-8.19v-.25a8.31,8.31,0,0,1,13.33-6.5l3.89-6.66a15.94,15.94,0,0,0-17.22-.38V26.22H47.16v32h7.69V56.48a15.92,15.92,0,0,0,16.89-.17L68.2,49.42A8.28,8.28,0,0,1,63.16,51.13Z" transform="translate(-12.97 -26.22)"/></svg>